<svg xmlns="http://www.w3.org/2000/svg" viewBox="0 0 800 520"><defs><linearGradient id="g" x1="0" y1="0" x2="1" y2="1"><stop offset="0" stop-color="#0d1b27"/><stop offset="1" stop-color="#071016"/></linearGradient></defs><rect width="800" height="520" rx="28" fill="url(#g)"/><g stroke="#d6b26a" stroke-opacity=".28" stroke-width="2"><path d="M400 260L150 120M400 260L640 110M400 260L160 405M400 260L650 390M400 260L400 70M400 260L400 450"/></g><g font-family="Arial,Helvetica,sans-serif" text-anchor="middle"><g fill="#182b38" stroke="#6fa9b4"><circle cx="400" cy="260" r="78"/><circle cx="150" cy="120" r="54"/><circle cx="640" cy="110" r="54"/><circle cx="160" cy="405" r="54"/><circle cx="650" cy="390" r="54"/><circle cx="400" cy="70" r="46"/><circle cx="400" cy="450" r="46"/></g><g fill="#eef3f6"><text x="400" y="255" font-size="24" font-weight="700">RADAR</text><text x="400" y="284" font-size="14">conhecimento</text><text x="150" y="116" font-size="17">Pessoa</text><text x="640" y="106" font-size="17">Obra</text><text x="160" y="401" font-size="17">Conceito</text><text x="650" y="386" font-size="17">Lugar</text><text x="400" y="66" font-size="15">Questão</text><text x="400" y="446" font-size="15">Curiosidade</text></g></g></svg>