<svg xmlns="http://www.w3.org/2000/svg" viewBox="0 0 700 820"><defs><linearGradient id="g" x1="0" x2="1" y1="0" y2="1"><stop stop-color="#243a54"/><stop offset="1" stop-color="#9b704a"/></linearGradient></defs><rect width="700" height="820" rx="34" fill="url(#g)"/><circle cx="360" cy="315" r="165" fill="#d7c19d" opacity=".85"/><path d="M190 760 C206 568 300 492 360 492 C420 492 500 568 510 760Z" fill="#111923" opacity=".9"/><path d="M220 295c40-104 220-132 298 4-62-43-112-60-173-34-44 19-78 47-125 30z" fill="#44372d"/><circle cx="312" cy="340" r="8" fill="#222"/><circle cx="405" cy="340" r="8" fill="#222"/><path d="M319 421c39 27 77 27 116 0" fill="none" stroke="#7d5c4b" stroke-width="8" stroke-linecap="round"/><text x="42" y="70" fill="#fff" font-family="Arial,sans-serif" font-size="18" letter-spacing="4">RADAR · PENSADORES</text><text x="42" y="740" fill="#fff" font-family="Georgia,serif" font-size="44" font-weight="700">Isaac Newton</text></svg>